<svg xmlns="http://www.w3.org/2000/svg" viewBox="0 0 1120 404" width="1120" height="404" font-family="Segoe UI, Segoe UI Variable, Helvetica Neue, Arial, sans-serif">
<rect width="1120" height="404" fill="#ffffff"/>
<rect x="0" y="0" width="266.0" height="42" rx="8" fill="#2E7D27"/>
<text x="16" y="27" font-size="13.5" fill="#ffffff" font-weight="700" letter-spacing="1.2">DONE</text>
<text x="250" y="27" font-size="17" fill="#ffffff" font-weight="700" text-anchor="end">3</text>
<rect x="0" y="58" width="266.0" height="58" rx="8" fill="#F8F9FC" stroke="#DCDEE8" stroke-width="1"/>
<rect x="0" y="58" width="5.0" height="58" rx="2" fill="#2E7D27"/>
<text x="16" y="83" font-size="16" fill="#19226D" font-weight="700">Implementation</text>
<text x="16" y="102" font-size="11.5" fill="#8a8d99" font-weight="400">All seven phases delivered</text>
<rect x="0" y="126" width="266.0" height="58" rx="8" fill="#F8F9FC" stroke="#DCDEE8" stroke-width="1"/>
<rect x="0" y="126" width="5.0" height="58" rx="2" fill="#2E7D27"/>
<text x="16" y="151" font-size="16" fill="#19226D" font-weight="700">Smoke test</text>
<text x="16" y="170" font-size="11.5" fill="#8a8d99" font-weight="400">Baseline connectivity, Phase 0</text>
<rect x="0" y="194" width="266.0" height="58" rx="8" fill="#F8F9FC" stroke="#DCDEE8" stroke-width="1"/>
<rect x="0" y="194" width="5.0" height="58" rx="2" fill="#2E7D27"/>
<text x="16" y="219" font-size="16" fill="#19226D" font-weight="700">System test</text>
<text x="16" y="238" font-size="11.5" fill="#8a8d99" font-weight="400">Five-node run, warning reached</text>
<rect x="284" y="0" width="266.0" height="42" rx="8" fill="#C2740A"/>
<text x="300" y="27" font-size="13.5" fill="#19226D" font-weight="700" letter-spacing="1.2">IN PROGRESS</text>
<text x="534" y="27" font-size="17" fill="#19226D" font-weight="700" text-anchor="end">1</text>
<rect x="284" y="58" width="266.0" height="58" rx="8" fill="#F8F9FC" stroke="#DCDEE8" stroke-width="1"/>
<rect x="284" y="58" width="5.0" height="58" rx="2" fill="#C2740A"/>
<text x="300" y="83" font-size="16" fill="#19226D" font-weight="700">Isolated node tests</text>
<text x="300" y="102" font-size="11.5" fill="#8a8d99" font-weight="400">Each node alone on bench stand-ins</text>
<rect x="568" y="0" width="266.0" height="42" rx="8" fill="#6E7488"/>
<text x="584" y="27" font-size="13.5" fill="#ffffff" font-weight="700" letter-spacing="1.2">TO DO</text>
<text x="818" y="27" font-size="17" fill="#ffffff" font-weight="700" text-anchor="end">5</text>
<rect x="568" y="58" width="266.0" height="58" rx="8" fill="#F8F9FC" stroke="#DCDEE8" stroke-width="1"/>
<rect x="568" y="58" width="5.0" height="58" rx="2" fill="#6E7488"/>
<text x="584" y="83" font-size="16" fill="#19226D" font-weight="700">Scenario import</text>
<text x="584" y="102" font-size="11.5" fill="#8a8d99" font-weight="400">Test scenarios from JSON or XML</text>
<rect x="568" y="126" width="266.0" height="58" rx="8" fill="#F8F9FC" stroke="#DCDEE8" stroke-width="1"/>
<rect x="568" y="126" width="5.0" height="58" rx="2" fill="#6E7488"/>
<text x="584" y="151" font-size="16" fill="#19226D" font-weight="700">Design report</text>
<text x="584" y="170" font-size="11.5" fill="#8a8d99" font-weight="400">The delivered design, as a report</text>
<rect x="568" y="194" width="266.0" height="58" rx="8" fill="#F8F9FC" stroke="#DCDEE8" stroke-width="1"/>
<rect x="568" y="194" width="5.0" height="58" rx="2" fill="#6E7488"/>
<text x="584" y="219" font-size="16" fill="#19226D" font-weight="700">Knowledge base</text>
<text x="584" y="238" font-size="11.5" fill="#8a8d99" font-weight="400">What the project taught us</text>
<rect x="568" y="262" width="266.0" height="58" rx="8" fill="#F8F9FC" stroke="#DCDEE8" stroke-width="1"/>
<rect x="568" y="262" width="5.0" height="58" rx="2" fill="#6E7488"/>
<text x="584" y="287" font-size="16" fill="#19226D" font-weight="700">Future extensions</text>
<text x="584" y="306" font-size="11.5" fill="#8a8d99" font-weight="400">What the architecture can absorb</text>
<rect x="568" y="330" width="266.0" height="58" rx="8" fill="#F8F9FC" stroke="#DCDEE8" stroke-width="1"/>
<rect x="568" y="330" width="5.0" height="58" rx="2" fill="#6E7488"/>
<text x="584" y="355" font-size="16" fill="#19226D" font-weight="700">IVI layout</text>
<text x="584" y="374" font-size="11.5" fill="#8a8d99" font-weight="400">Possible warning-view rework</text>
<rect x="852" y="0" width="266.0" height="42" rx="8" fill="#19226D"/>
<text x="868" y="27" font-size="13.5" fill="#ffffff" font-weight="700" letter-spacing="1.2">OPTIONAL</text>
<text x="1102" y="27" font-size="17" fill="#ffffff" font-weight="700" text-anchor="end">2</text>
<rect x="852" y="58" width="266.0" height="58" rx="8" fill="#F8F9FC" stroke="#DCDEE8" stroke-width="1"/>
<rect x="852" y="58" width="5.0" height="58" rx="2" fill="#19226D"/>
<text x="868" y="83" font-size="16" fill="#19226D" font-weight="700">Video to ADA and IVI</text>
<text x="868" y="102" font-size="11.5" fill="#8a8d99" font-weight="400">One clip source feeding both nodes</text>
<rect x="852" y="126" width="266.0" height="58" rx="8" fill="#F8F9FC" stroke="#DCDEE8" stroke-width="1"/>
<rect x="852" y="126" width="5.0" height="58" rx="2" fill="#19226D"/>
<text x="868" y="151" font-size="16" fill="#19226D" font-weight="700">Live-video ML</text>
<text x="868" y="170" font-size="11.5" fill="#8a8d99" font-weight="400">Feasibility of detection at speed</text>
</svg>
